<svg data-v-423bf9ae="" xmlns="http://www.w3.org/2000/svg" viewBox="0 0 180.9924737888354 60" class="font"><!----><!----><defs data-v-423bf9ae=""><linearGradient data-v-423bf9ae="" gradientTransform="rotate(25)" id="d7f5d069-fb99-4439-9dbf-ddee7b8e3b25" x1="0%" y1="0%" x2="100%" y2="0%"><stop data-v-423bf9ae="" offset="0%" style="stop-color: rgb(48, 34, 58); stop-opacity: 1;"></stop><stop data-v-423bf9ae="" offset="100%" style="stop-color: rgb(241, 56, 0); stop-opacity: 1;"></stop></linearGradient></defs><g data-v-423bf9ae="" id="a3c9fff1-6648-4739-8c9d-9b4d8f03e9f4" fill="url(#d7f5d069-fb99-4439-9dbf-ddee7b8e3b25)" transform="matrix(4.51127813079263,0,0,4.51127813079263,-2.345865112073767,-10.105262340742655)"><path d="M6.93 11.50L0.52 8.00L6.93 4.50L7.51 5.50L2.69 8.00L7.51 10.51L6.93 11.50ZM12.31 12.71Q11.47 12.71 10.72 12.41Q9.97 12.10 9.46 11.49Q8.95 10.88 8.80 10.01L8.80 10.01L10.15 9.65Q10.21 10.26 10.52 10.67Q10.82 11.08 11.29 11.28Q11.76 11.48 12.33 11.48L12.33 11.48Q13.16 11.48 13.64 11.08Q14.12 10.69 14.12 9.99L14.12 9.99Q14.12 9.50 13.84 9.15Q13.56 8.81 13.15 8.59Q12.74 8.36 12.04 8.07L12.04 8.07Q11.20 7.72 10.69 7.42Q10.17 7.12 9.81 6.62Q9.45 6.11 9.45 5.35L9.45 5.35Q9.45 4.58 9.82 4.00Q10.20 3.42 10.84 3.11Q11.48 2.80 12.25 2.80L12.25 2.80Q13.15 2.80 13.87 3.20Q14.59 3.60 15.05 4.40L15.05 4.40L13.95 5.10Q13.67 4.58 13.22 4.30Q12.76 4.03 12.22 4.03L12.22 4.03Q11.84 4.03 11.52 4.18Q11.20 4.33 11.01 4.61Q10.82 4.89 10.82 5.26L10.82 5.26Q10.82 5.68 11.07 5.98Q11.33 6.28 11.71 6.48Q12.09 6.68 12.76 6.97L12.76 6.97Q13.63 7.33 14.17 7.65Q14.72 7.96 15.10 8.51Q15.48 9.06 15.48 9.87L15.48 9.87Q15.48 10.73 15.07 11.37Q14.65 12.02 13.92 12.37Q13.20 12.71 12.31 12.71L12.31 12.71ZM21.21 12.74Q19.73 12.74 18.72 12.08Q17.71 11.41 17.21 10.28Q16.71 9.15 16.71 7.77L16.71 7.77Q16.71 6.39 17.21 5.26Q17.71 4.14 18.71 3.46Q19.72 2.79 21.19 2.79L21.19 2.79Q22.59 2.79 23.64 3.47Q24.68 4.16 25.25 5.46L25.25 5.46L24.01 5.99Q23.63 5.02 22.89 4.53Q22.16 4.04 21.18 4.04L21.18 4.04Q20.14 4.04 19.44 4.54Q18.75 5.03 18.42 5.86Q18.09 6.69 18.09 7.70L18.09 7.70Q18.09 8.77 18.42 9.62Q18.75 10.47 19.45 10.98Q20.15 11.48 21.21 11.48L21.21 11.48Q21.97 11.48 22.61 11.14Q23.25 10.81 23.65 10.17Q24.04 9.54 24.10 8.67L24.10 8.67L21.89 8.67L21.89 7.56L25.42 7.56L25.42 12.61L24.30 12.61L24.23 11.03Q23.99 11.52 23.56 11.90Q23.13 12.29 22.52 12.52Q21.92 12.74 21.21 12.74L21.21 12.74ZM26.35 15.54L31.60 2.24L32.87 2.24L27.64 15.54L26.35 15.54ZM34.22 11.50L33.64 10.51L38.47 8.00L33.64 5.50L34.22 4.50L40.64 8.00L34.22 11.50Z"></path></g><!----><!----></svg>