<?xml version="1.0" encoding="UTF-8"?>
<!DOCTYPE svg PUBLIC "-//W3C//DTD SVG 1.1//EN" "http://www.w3.org/Graphics/SVG/1.1/DTD/svg11.dtd">
<svg xmlns="http://www.w3.org/2000/svg" version="1.1" width="208px" height="208px" style="shape-rendering:geometricPrecision; text-rendering:geometricPrecision; image-rendering:optimizeQuality; fill-rule:evenodd; clip-rule:evenodd" xmlns:xlink="http://www.w3.org/1999/xlink">
<g><path style="opacity:1" fill="#fdfdfd" d="M -0.5,-0.5 C 68.8333,-0.5 138.167,-0.5 207.5,-0.5C 207.5,68.8333 207.5,138.167 207.5,207.5C 138.167,207.5 68.8333,207.5 -0.5,207.5C -0.5,138.167 -0.5,68.8333 -0.5,-0.5 Z"/></g>
<g><path style="opacity:1" fill="#1f2024" d="M 201.5,76.5 C 201.259,78.8984 201.926,80.8984 203.5,82.5C 203.5,83.1667 203.5,83.8333 203.5,84.5C 205.303,98.9647 204.637,113.298 201.5,127.5C 201.5,128.167 201.5,128.833 201.5,129.5C 199.6,132.518 198.267,135.851 197.5,139.5C 179.625,179.622 148.625,200.622 104.5,202.5C 65.4994,200.675 36.166,183.008 16.5,149.5C 14.2333,145.362 12.5666,141.028 11.5,136.5C 10.7384,132.215 9.40508,128.215 7.5,124.5C 6.51033,120.228 5.84366,115.894 5.5,111.5C 5.35516,100.773 6.02182,90.1059 7.5,79.5C 9.7444,74.7669 11.4111,69.7669 12.5,64.5C 26.5896,32.2654 50.923,12.0987 85.5,4C 133.85,-2.07397 170.35,15.7594 195,57.5C 197.498,63.8302 199.665,70.1635 201.5,76.5 Z"/></g>
<g><path style="opacity:1" fill="#992b2c" d="M 116.5,28.5 C 114.626,37.7591 112.793,47.0924 111,56.5C 108.21,66.515 105.377,76.515 102.5,86.5C 102.336,83.8127 102.503,81.146 103,78.5C 107.829,61.82 112.329,45.1534 116.5,28.5 Z"/></g>
<g><path style="opacity:1" fill="#371c1f" d="M 127.5,28.5 C 128.586,28.62 129.253,29.2867 129.5,30.5C 127.985,38.1127 126.319,45.6127 124.5,53C 124.833,54.1667 125.167,55.3333 125.5,56.5C 126.995,55.2947 128.328,55.2947 129.5,56.5C 126.167,57.1667 124.167,59.1667 123.5,62.5C 122.883,62.6107 122.383,62.944 122,63.5C 121.833,62.1667 121.667,60.8333 121.5,59.5C 123.612,49.1538 125.612,38.8205 127.5,28.5 Z"/></g>
<g><path style="opacity:1" fill="#792325" d="M 129.5,56.5 C 131.749,57.0798 133.415,58.4131 134.5,60.5C 132.844,59.8535 131.177,59.1869 129.5,58.5C 128.416,58.685 127.416,59.0183 126.5,59.5C 125.9,60.9002 124.9,61.9002 123.5,62.5C 124.167,59.1667 126.167,57.1667 129.5,56.5 Z"/></g>
<g><path style="opacity:1" fill="#832628" d="M 74.5,60.5 C 74.1667,61.1667 73.8333,61.8333 73.5,62.5C 69.4422,65.89 65.1089,68.89 60.5,71.5C 64.5439,67.1322 69.2105,63.4655 74.5,60.5 Z"/></g>
<g><path style="opacity:1" fill="#861b1d" d="M 116.5,26.5 C 120.233,26.87 123.899,27.5367 127.5,28.5C 125.612,38.8205 123.612,49.1538 121.5,59.5C 121.667,60.8333 121.833,62.1667 122,63.5C 122.383,62.944 122.883,62.6107 123.5,62.5C 123.343,63.8734 123.51,65.2068 124,66.5C 125.72,67.3841 126.886,68.7175 127.5,70.5C 124.821,69.1447 122.154,67.8113 119.5,66.5C 118.833,67.5 118.167,68.5 117.5,69.5C 120.155,57.0918 122.488,44.5918 124.5,32C 124.472,30.9302 124.139,30.0968 123.5,29.5C 122.609,28.8902 121.609,28.5569 120.5,28.5C 119.167,27.1667 117.833,27.1667 116.5,28.5C 116.5,27.8333 116.5,27.1667 116.5,26.5 Z"/></g>
<g><path style="opacity:1" fill="#737476" d="M 12.5,64.5 C 11.4111,69.7669 9.7444,74.7669 7.5,79.5C 8.19382,74.085 9.86048,69.085 12.5,64.5 Z"/></g>
<g><path style="opacity:1" fill="#bf1e1f" d="M 120.5,28.5 C 121.609,28.5569 122.609,28.8902 123.5,29.5C 118.948,50.3727 113.782,71.0394 108,91.5C 106.187,100.892 104.52,110.225 103,119.5C 101.667,122.833 100.333,126.167 99,129.5C 97.3248,138.898 95.3248,148.232 93,157.5C 91.9887,158.337 90.8221,158.67 89.5,158.5C 88.209,158.737 87.209,158.404 86.5,157.5C 88.1667,157.5 89.8333,157.5 91.5,157.5C 92.9675,145.997 95.1342,134.664 98,123.5C 106.35,93.0643 114.183,62.5643 121.5,32C 121.352,30.7441 121.018,29.5774 120.5,28.5 Z"/></g>
<g><path style="opacity:1" fill="#801b1c" d="M 127.5,70.5 C 129.527,70.3379 131.527,70.5045 133.5,71C 137.373,76.3736 142.039,80.8736 147.5,84.5C 140.573,80.2449 133.906,75.5783 127.5,70.5 Z"/></g>
<g><path style="opacity:1" fill="#d12526" d="M 39.5,101.5 C 36.6699,98.7516 33.3365,97.0849 29.5,96.5C 31.3603,95.0613 33.027,93.3947 34.5,91.5C 37.1092,90.5569 39.1092,88.8903 40.5,86.5C 43.8908,85.4707 46.5574,83.4707 48.5,80.5C 49.2623,78.7376 50.5956,77.7376 52.5,77.5C 55.563,75.9748 58.2297,73.9748 60.5,71.5C 65.1089,68.89 69.4422,65.89 73.5,62.5C 75.4664,61.5588 77.4664,60.5588 79.5,59.5C 80.568,61.1875 80.4014,62.8541 79,64.5C 66.0935,73.5648 53.5935,83.2315 41.5,93.5C 39.0674,95.8558 38.4007,98.5224 39.5,101.5 Z"/></g>
<g><path style="opacity:1" fill="#631a1d" d="M 119.5,66.5 C 117.189,76.1155 115.189,85.7822 113.5,95.5C 113.167,95.5 112.833,95.5 112.5,95.5C 112.342,92.0977 112.676,88.7644 113.5,85.5C 115.345,80.4188 116.678,75.0855 117.5,69.5C 118.167,68.5 118.833,67.5 119.5,66.5 Z"/></g>
<g><path style="opacity:1" fill="#571d20" d="M 149.5,70.5 C 151.749,71.0798 153.415,72.4131 154.5,74.5C 152.251,73.9202 150.585,72.5869 149.5,70.5 Z"/></g>
<g><path style="opacity:1" fill="#812528" d="M 60.5,71.5 C 58.2297,73.9748 55.563,75.9748 52.5,77.5C 54.3727,74.5512 57.0393,72.5512 60.5,71.5 Z"/></g>
<g><path style="opacity:1" fill="#9fa0a1" d="M 201.5,76.5 C 203.074,78.1016 203.741,80.1016 203.5,82.5C 201.926,80.8984 201.259,78.8984 201.5,76.5 Z"/></g>
<g><path style="opacity:1" fill="#832628" d="M 48.5,80.5 C 46.5574,83.4707 43.8908,85.4707 40.5,86.5C 42.8003,84.016 45.4669,82.016 48.5,80.5 Z"/></g>
<g><path style="opacity:1" fill="#7d7e80" d="M 7.5,79.5 C 6.02182,90.1059 5.35516,100.773 5.5,111.5C 3.90628,100.713 4.57294,90.0462 7.5,79.5 Z"/></g>
<g><path style="opacity:1" fill="#7c2526" d="M 40.5,86.5 C 39.1092,88.8903 37.1092,90.5569 34.5,91.5C 35.865,89.1402 37.865,87.4735 40.5,86.5 Z"/></g>
<g><path style="opacity:1" fill="#ac1a1c" d="M 78.5,57.5 C 80.0174,57.5106 81.1841,58.1772 82,59.5C 83.4097,64.8524 81.5764,68.3524 76.5,70C 75.3133,73.7633 72.6467,75.7633 68.5,76C 65.2244,82.9492 59.891,87.2825 52.5,89C 51.32,91.5978 49.32,93.2645 46.5,94C 44.1365,96.5056 42.4698,99.3389 41.5,102.5C 40.8333,102.167 40.1667,101.833 39.5,101.5C 38.4007,98.5224 39.0674,95.8558 41.5,93.5C 53.5935,83.2315 66.0935,73.5648 79,64.5C 80.4014,62.8541 80.568,61.1875 79.5,59.5C 77.4664,60.5588 75.4664,61.5588 73.5,62.5C 73.8333,61.8333 74.1667,61.1667 74.5,60.5C 75.2623,58.7376 76.5956,57.7376 78.5,57.5 Z"/></g>
<g><path style="opacity:1" fill="#861b1c" d="M 78.5,57.5 C 80.1534,56.2006 81.6534,56.5339 83,58.5C 85.1637,60.8109 86.1637,63.4775 86,66.5C 77.2527,74.42 68.0861,81.7534 58.5,88.5C 51.6097,91.3905 46.2764,96.0572 42.5,102.5C 42.1667,102.5 41.8333,102.5 41.5,102.5C 42.4698,99.3389 44.1365,96.5056 46.5,94C 49.32,93.2645 51.32,91.5978 52.5,89C 59.891,87.2825 65.2244,82.9492 68.5,76C 72.6467,75.7633 75.3133,73.7633 76.5,70C 81.5764,68.3524 83.4097,64.8524 82,59.5C 81.1841,58.1772 80.0174,57.5106 78.5,57.5 Z"/></g>
<g><path style="opacity:1" fill="#e62322" d="M 181.5,92.5 C 185.251,94.1848 186.251,96.8514 184.5,100.5C 181.06,102.663 177.56,103.997 174,104.5C 173.252,102.668 172.252,101.001 171,99.5C 170.318,97.0617 170.818,94.8951 172.5,93C 172.241,91.7387 171.574,90.7387 170.5,90C 174.268,90.3586 177.935,91.1919 181.5,92.5 Z"/></g>
<g><path style="opacity:1" fill="#9d2b2d" d="M 102.5,86.5 C 99.6887,103.621 95.6887,120.288 90.5,136.5C 90.5,135.833 90.5,135.167 90.5,134.5C 90.572,130.374 91.2387,126.374 92.5,122.5C 96.039,110.551 99.3724,98.5506 102.5,86.5 Z"/></g>
<g><path style="opacity:1" fill="#401b1e" d="M 112.5,95.5 C 112.833,95.5 113.167,95.5 113.5,95.5C 112.413,103.583 110.413,111.25 107.5,118.5C 108.548,110.692 110.215,103.025 112.5,95.5 Z"/></g>
<g><path style="opacity:1" fill="#9c2728" d="M 34.5,91.5 C 33.027,93.3947 31.3603,95.0613 29.5,96.5C 25.9486,98.0038 24.7819,100.67 26,104.5C 26.3826,105.056 26.8826,105.389 27.5,105.5C 28.1667,106.5 28.8333,107.5 29.5,108.5C 22.3837,105.244 21.717,100.91 27.5,95.5C 29.7254,93.89 32.0587,92.5566 34.5,91.5 Z"/></g>
<g><path style="opacity:1" fill="#431c1e" d="M 58.5,88.5 C 53.9784,92.3654 49.4784,96.3654 45,100.5C 44.3333,101.5 44.3333,102.5 45,103.5C 46.045,104.373 46.8783,105.373 47.5,106.5C 45.2512,105.92 43.5846,104.587 42.5,102.5C 46.2764,96.0572 51.6097,91.3905 58.5,88.5 Z"/></g>
<g><path style="opacity:1" fill="#321d20" d="M 116.5,26.5 C 116.5,27.1667 116.5,27.8333 116.5,28.5C 112.329,45.1534 107.829,61.82 103,78.5C 102.503,81.146 102.336,83.8127 102.5,86.5C 99.3724,98.5506 96.039,110.551 92.5,122.5C 93.8525,109.729 96.6859,97.3958 101,85.5C 101.333,81.8333 101.667,78.1667 102,74.5C 105.747,61.5364 109.414,48.5364 113,35.5C 113.498,32.5184 113.665,29.5184 113.5,26.5C 114.5,26.5 115.5,26.5 116.5,26.5 Z"/></g>
<g><path style="opacity:1" fill="#e62222" d="M 29.5,96.5 C 33.3365,97.0849 36.6699,98.7516 39.5,101.5C 39.5743,103.411 40.5743,104.578 42.5,105C 41.8878,106.303 41.5545,107.47 41.5,108.5C 40.1761,106.682 38.3428,105.682 36,105.5C 33.1132,106.535 30.2799,106.535 27.5,105.5C 26.8826,105.389 26.3826,105.056 26,104.5C 24.7819,100.67 25.9486,98.0038 29.5,96.5 Z"/></g>
<g><path style="opacity:1" fill="#a6a6a8" d="M 203.5,84.5 C 204.29,85.6085 204.79,86.9419 205,88.5C 206.058,101.27 205.391,113.937 203,126.5C 202.617,127.056 202.117,127.389 201.5,127.5C 204.637,113.298 205.303,98.9647 203.5,84.5 Z"/></g>
<g><path style="opacity:1" fill="#d52626" d="M 120.5,28.5 C 121.018,29.5774 121.352,30.7441 121.5,32C 114.183,62.5643 106.35,93.0643 98,123.5C 95.1342,134.664 92.9675,145.997 91.5,157.5C 89.8333,157.5 88.1667,157.5 86.5,157.5C 88.0519,151.94 89.0519,146.274 89.5,140.5C 89.2322,138.901 89.5655,137.568 90.5,136.5C 95.6887,120.288 99.6887,103.621 102.5,86.5C 105.377,76.515 108.21,66.515 111,56.5C 112.793,47.0924 114.626,37.7591 116.5,28.5C 117.833,27.1667 119.167,27.1667 120.5,28.5 Z"/></g>
<g><path style="opacity:1" fill="#a51a1c" d="M 126.5,59.5 C 126.515,64.019 128.848,66.519 133.5,67C 136.392,70.0516 139.059,73.2183 141.5,76.5C 149.961,81.9837 158.627,86.9837 167.5,91.5C 169.094,94.765 170.094,98.265 170.5,102C 158.348,115.152 145.848,127.986 133,140.5C 132.616,142.197 132.782,143.863 133.5,145.5C 131.5,144.167 129.833,142.5 128.5,140.5C 140.411,127.086 152.911,114.086 166,101.5C 166.877,99.3258 166.377,97.6591 164.5,96.5C 158.62,92.7335 152.954,88.7335 147.5,84.5C 142.039,80.8736 137.373,76.3736 133.5,71C 131.527,70.5045 129.527,70.3379 127.5,70.5C 126.886,68.7175 125.72,67.3841 124,66.5C 123.51,65.2068 123.343,63.8734 123.5,62.5C 124.9,61.9002 125.9,60.9002 126.5,59.5 Z"/></g>
<g><path style="opacity:1" fill="#601b1d" d="M 164.5,96.5 C 166.377,97.6591 166.877,99.3258 166,101.5C 152.911,114.086 140.411,127.086 128.5,140.5C 127.427,139.749 127.26,138.749 128,137.5C 140.333,125.167 152.667,112.833 165,100.5C 165.692,99.5632 165.525,98.8966 164.5,98.5C 164.5,97.8333 164.5,97.1667 164.5,96.5 Z"/></g>
<g><path style="opacity:1" fill="#ce2526" d="M 39.5,101.5 C 40.1667,101.833 40.8333,102.167 41.5,102.5C 41.8333,102.5 42.1667,102.5 42.5,102.5C 43.5846,104.587 45.2512,105.92 47.5,106.5C 58.6231,115.895 70.2897,124.562 82.5,132.5C 84.3271,133.932 85.9937,135.599 87.5,137.5C 86.4787,139.188 85.1454,140.521 83.5,141.5C 80.4824,141.494 77.8157,140.494 75.5,138.5C 70.3589,133.103 65.0256,127.937 59.5,123C 53.9438,120.128 48.6104,116.795 43.5,113C 41.26,112.023 38.9267,111.523 36.5,111.5C 36.5,110.5 36.5,109.5 36.5,108.5C 34.1667,108.5 31.8333,108.5 29.5,108.5C 28.8333,107.5 28.1667,106.5 27.5,105.5C 30.2799,106.535 33.1132,106.535 36,105.5C 38.3428,105.682 40.1761,106.682 41.5,108.5C 41.5545,107.47 41.8878,106.303 42.5,105C 40.5743,104.578 39.5743,103.411 39.5,101.5 Z"/></g>
<g><path style="opacity:1" fill="#ce2425" d="M 134.5,60.5 C 138.976,64.5746 143.976,67.9079 149.5,70.5C 150.585,72.5869 152.251,73.9202 154.5,74.5C 160.599,78.7519 166.599,83.2519 172.5,88C 174.677,89.2022 177.011,89.7022 179.5,89.5C 180.167,90.5 180.833,91.5 181.5,92.5C 177.935,91.1919 174.268,90.3586 170.5,90C 171.574,90.7387 172.241,91.7387 172.5,93C 170.818,94.8951 170.318,97.0617 171,99.5C 172.252,101.001 173.252,102.668 174,104.5C 177.56,103.997 181.06,102.663 184.5,100.5C 182.788,103.711 180.121,105.544 176.5,106C 162.911,119.086 149.911,132.586 137.5,146.5C 135.901,146.768 134.568,146.434 133.5,145.5C 132.782,143.863 132.616,142.197 133,140.5C 145.848,127.986 158.348,115.152 170.5,102C 170.094,98.265 169.094,94.765 167.5,91.5C 158.627,86.9837 149.961,81.9837 141.5,76.5C 139.059,73.2183 136.392,70.0516 133.5,67C 128.848,66.519 126.515,64.019 126.5,59.5C 127.416,59.0183 128.416,58.685 129.5,58.5C 131.177,59.1869 132.844,59.8535 134.5,60.5 Z"/></g>
<g><path style="opacity:1" fill="#712124" d="M 179.5,89.5 C 189.407,93.7521 190.073,99.2521 181.5,106C 177.879,106.456 175.212,108.289 173.5,111.5C 161.5,123.167 149.5,134.833 137.5,146.5C 149.911,132.586 162.911,119.086 176.5,106C 180.121,105.544 182.788,103.711 184.5,100.5C 186.251,96.8514 185.251,94.1848 181.5,92.5C 180.833,91.5 180.167,90.5 179.5,89.5 Z"/></g>
<g><path style="opacity:1" fill="#a61b1c" d="M 29.5,108.5 C 31.8333,108.5 34.1667,108.5 36.5,108.5C 36.5,109.5 36.5,110.5 36.5,111.5C 38.9267,111.523 41.26,112.023 43.5,113C 48.6104,116.795 53.9438,120.128 59.5,123C 65.0256,127.937 70.3589,133.103 75.5,138.5C 77.8157,140.494 80.4824,141.494 83.5,141.5C 82.8902,142.391 82.5569,143.391 82.5,144.5C 82.189,145.478 81.5223,146.145 80.5,146.5C 78.5808,145.388 76.9142,144.054 75.5,142.5C 70.6799,136.518 65.0133,131.351 58.5,127C 56.559,125.097 54.2257,124.264 51.5,124.5C 43.8039,119.653 36.4706,114.32 29.5,108.5 Z"/></g>
<g><path style="opacity:1" fill="#858687" d="M 7.5,124.5 C 9.40508,128.215 10.7384,132.215 11.5,136.5C 10.8826,136.389 10.3826,136.056 10,135.5C 8.69048,131.93 7.85715,128.263 7.5,124.5 Z"/></g>
<g><path style="opacity:1" fill="#2a1d20" d="M 164.5,98.5 C 165.525,98.8966 165.692,99.5632 165,100.5C 152.667,112.833 140.333,125.167 128,137.5C 127.26,138.749 127.427,139.749 128.5,140.5C 129.833,142.5 131.5,144.167 133.5,145.5C 134.568,146.434 135.901,146.768 137.5,146.5C 149.5,134.833 161.5,123.167 173.5,111.5C 173.461,112.583 173.127,113.583 172.5,114.5C 161.491,125.676 150.325,136.676 139,147.5C 137.535,148.33 136.035,148.496 134.5,148C 131.667,145.833 128.833,143.667 126,141.5C 125.558,139.316 126.058,137.316 127.5,135.5C 139.881,123.119 152.215,110.785 164.5,98.5 Z"/></g>
<g><path style="opacity:1" fill="#851a1c" d="M 51.5,124.5 C 54.2257,124.264 56.559,125.097 58.5,127C 65.0133,131.351 70.6799,136.518 75.5,142.5C 67.2118,136.878 59.2118,130.878 51.5,124.5 Z"/></g>
<g><path style="opacity:1" fill="#901b1d" d="M 113.5,85.5 C 112.676,88.7644 112.342,92.0977 112.5,95.5C 110.215,103.025 108.548,110.692 107.5,118.5C 107.672,119.492 107.338,120.158 106.5,120.5C 104.115,129.74 101.615,139.073 99,148.5C 98.5026,151.146 98.3359,153.813 98.5,156.5C 97.7515,157.531 97.0848,158.698 96.5,160C 93.1667,160.667 89.8333,160.667 86.5,160C 85.3511,157.541 85.3511,155.041 86.5,152.5C 86.5,151.167 86.5,149.833 86.5,148.5C 87.7487,145.913 88.7487,143.246 89.5,140.5C 89.0519,146.274 88.0519,151.94 86.5,157.5C 87.209,158.404 88.209,158.737 89.5,158.5C 91.2646,159.461 93.2646,159.795 95.5,159.5C 95.3359,156.813 95.5026,154.146 96,151.5C 101.768,130.093 107.101,108.426 112,86.5C 112.383,85.944 112.883,85.6107 113.5,85.5 Z"/></g>
<g><path style="opacity:1" fill="#a1a2a3" d="M 201.5,129.5 C 201.23,133.358 199.897,136.691 197.5,139.5C 198.267,135.851 199.6,132.518 201.5,129.5 Z"/></g>
<g><path style="opacity:1" fill="#ac1a1b" d="M 123.5,29.5 C 124.139,30.0968 124.472,30.9302 124.5,32C 122.488,44.5918 120.155,57.0918 117.5,69.5C 116.678,75.0855 115.345,80.4188 113.5,85.5C 112.883,85.6107 112.383,85.944 112,86.5C 107.101,108.426 101.768,130.093 96,151.5C 95.5026,154.146 95.3359,156.813 95.5,159.5C 93.2646,159.795 91.2646,159.461 89.5,158.5C 90.8221,158.67 91.9887,158.337 93,157.5C 95.3248,148.232 97.3248,138.898 99,129.5C 100.333,126.167 101.667,122.833 103,119.5C 104.52,110.225 106.187,100.892 108,91.5C 113.782,71.0394 118.948,50.3727 123.5,29.5 Z"/></g>
<g><path style="opacity:1" fill="#441b1e" d="M 106.5,120.5 C 105.025,132.888 102.359,144.888 98.5,156.5C 98.3359,153.813 98.5026,151.146 99,148.5C 101.615,139.073 104.115,129.74 106.5,120.5 Z"/></g>
<g><path style="opacity:1" fill="#491c1e" d="M 82.5,132.5 C 85.2184,133.043 87.885,133.709 90.5,134.5C 90.5,135.167 90.5,135.833 90.5,136.5C 89.5655,137.568 89.2322,138.901 89.5,140.5C 88.7487,143.246 87.7487,145.913 86.5,148.5C 87.0081,145.824 87.1747,143.157 87,140.5C 85.6288,142.041 84.1288,143.375 82.5,144.5C 82.5569,143.391 82.8902,142.391 83.5,141.5C 85.1454,140.521 86.4787,139.188 87.5,137.5C 85.9937,135.599 84.3271,133.932 82.5,132.5 Z"/></g>
<g><path style="opacity:1" fill="#3c1c1f" d="M 86.5,152.5 C 85.3511,155.041 85.3511,157.541 86.5,160C 89.8333,160.667 93.1667,160.667 96.5,160C 97.0848,158.698 97.7515,157.531 98.5,156.5C 98.9746,159.323 97.9746,161.323 95.5,162.5C 91.8822,161.654 88.2155,161.32 84.5,161.5C 83.9455,157.988 84.6122,154.988 86.5,152.5 Z"/></g>
</svg>
