<svg width="100" height="100" viewBox="0 0 100 100" fill="none" xmlns="http://www.w3.org/2000/svg">
<rect width="100" height="100" fill="#1E1E1E"/>
<circle cx="50" cy="50" r="50" transform="rotate(-90 50 50)" fill="#1E2024"/>
<rect x="13" y="47.9113" width="36" height="6" transform="rotate(-37.4917 13 47.9113)" fill="url(#paint0_linear_0_1)"/>
<rect x="65.4415" y="26" width="36" height="6" transform="rotate(35 65.4415 26)" fill="url(#paint1_linear_0_1)"/>
<rect x="44" y="77.1597" width="68.0479" height="6" transform="rotate(-76.471 44 77.1597)" fill="url(#paint2_linear_0_1)"/>
<rect x="16.573" y="45" width="36" height="6" transform="rotate(36.5483 16.573 45)" fill="url(#paint3_linear_0_1)"/>
<rect x="94.6891" y="46.2408" width="36" height="6" transform="rotate(134.975 94.6891 46.2408)" fill="url(#paint4_linear_0_1)"/>
<defs>
<linearGradient id="paint0_linear_0_1" x1="31" y1="47.9113" x2="31" y2="53.9113" gradientUnits="userSpaceOnUse">
<stop stop-color="#F83030"/>
<stop offset="1" stop-color="#F10D0D" stop-opacity="0.53"/>
</linearGradient>
<linearGradient id="paint1_linear_0_1" x1="83.4414" y1="26" x2="83.4414" y2="32" gradientUnits="userSpaceOnUse">
<stop stop-color="#F83030"/>
<stop offset="1" stop-color="#F10D0D" stop-opacity="0.53"/>
</linearGradient>
<linearGradient id="paint2_linear_0_1" x1="78.0239" y1="77.1597" x2="78.0239" y2="83.1597" gradientUnits="userSpaceOnUse">
<stop stop-color="#F83030"/>
<stop offset="1" stop-color="#F10D0D" stop-opacity="0.53"/>
</linearGradient>
<linearGradient id="paint3_linear_0_1" x1="34.573" y1="45" x2="34.573" y2="51" gradientUnits="userSpaceOnUse">
<stop stop-color="#F83030"/>
<stop offset="1" stop-color="#F10D0D" stop-opacity="0.53"/>
</linearGradient>
<linearGradient id="paint4_linear_0_1" x1="112.689" y1="46.2408" x2="112.689" y2="52.2408" gradientUnits="userSpaceOnUse">
<stop stop-color="#F83030"/>
<stop offset="1" stop-color="#F10D0D" stop-opacity="0.53"/>
</linearGradient>
</defs>
</svg>
